      Format : AVI
      Format/Info : Audio Video Interleave
      File size : 700 MiB
      Duration : 56mn 59s
      Overall bit rate : 1 718 Kbps
      Writing library : VirtualDub build 32661/release

   Video
      Format : MPEG-4 Visual
      Format profile : AdvancedSimple@L5
      Format settings, BVOP : Yes
      Format settings, QPel : No
      Format settings, GMC : No warppoints
      Format settings, Matrix : Default (H.263)
      Muxing mode : Packed bitstream
      Codec ID : XVID
      Codec ID/Hint : XviD
      Duration : 56mn 59s
      Bit rate : 1 554 Kbps
      Width : 624 pixels
      Height : 352 pixels
      Display aspect ratio : 16:9
      Frame rate : 25.000 fps
      Resolution : 24 bits
      Colorimetry : 4:2:0
      Scan type : Progressive
      Bits/(Pixel*Frame) : 0.283
      Stream size : 633 MiB (90%)
      Writing library : XviD 1.2.1 (UTC 2008-12-04)

   Audio
      Format : MPEG Audio
      Format version : Version 1
      Format profile : Layer 3
      Codec ID : 55
      Codec ID/Hint : MP3
      Duration : 56mn 59s
      Bit rate mode : Variable
      Bit rate : 151 Kbps
      Minimum bit rate : 32.0 Kbps
      Channel(s) : 2 channels
      Sampling rate : 48.0 KHz
      Resolution : 16 bits
      Stream size : 61.6 MiB (9%)
      Alignment : Aligned on interleaves
      Interleave, duration : 24 ms (0.60 video frame)
      Interleave, preload duration : 513 ms
      Writing library : LAME3.98r
      Encoding settings : -m j -V 4 -q 0 -lowpass 17.5 --vbr-new -b 32
********************************************************************
ScreenShots:-
1. http://img693.imageshack.us/img693/7061/17013603.jpg
2. http://img19.imageshack.us/img19/3281/16831645.jpg
********************************************************************
Genre: Reality-TV
********************************************************************
Plot: A nationwide search to find Britain's most talented and original dancers who can demonstrate they have the spirit, showmanship and technical ability of Michael Jackson.
*********************************************************************
Download, Comment, Seed and then Enjoy